<svg xmlns="http://www.w3.org/2000/svg" xmlns:xlink="http://www.w3.org/1999/xlink" width="110.371" height="110.371" viewBox="0 0 110.371 110.371"><defs><clipPath id="a"><rect width="110.371" height="110.371" fill="none"/></clipPath></defs><g clip-path="url(#a)"><path d="M65.185,22.827c-4.83,2.412-5.728,3.275-11.851,7.425l91.795,24.074c-2.583-5.695-3.507-9.056-5.428-12.061Z" transform="translate(-36.002 -15.409)" fill="#17144d"/><path d="M11.144,94.792l106.223,24.065c.368-3.539-.573-3.37.107-5.954.373-1.363-.037-4.739.225-6.105L16.455,82.728c-.446,1.324-4.185,8.772-5.311,12.064" transform="translate(-7.522 -55.843)" fill="#17144d"/><path d="M.451,156.954c.561,4.581-.109,6.027.453,12.059l96.347,21.252c3.461-2.925,7.165-5.5,9.828-9.253Z" transform="translate(-0.304 -105.948)" fill="#1d1b4d"/><path d="M11.776,231.082c1.965,4.73,6.169,7.891,6.565,12.053l66.2,19.008c3.209-2.653,7.995-5.052,12.139-6.982Z" transform="translate(-7.949 -155.986)" fill="#17144d"/><path d="M16.454,82.671a54.929,54.929,0,0,0-5.311,12.064L116.648,94.7a55.739,55.739,0,0,0-5.428-12.061Z" transform="translate(-7.522 -55.787)" fill="#ea734e"/><path d="M0,161.05a54.506,54.506,0,0,0,.6,7.856l109.244-.051a53.741,53.741,0,0,0,.525-7.843c0-1.427-.087-2.821-.193-4.216l-110.03.051c-.089,1.393-.157,2.779-.145,4.2" transform="translate(0 -105.841)" fill="#ea734e"/><path d="M11.776,231.016a54.88,54.88,0,0,0,6.565,12.053l89.953-.035a54.5,54.5,0,0,0,6.43-12.049Z" transform="translate(-7.949 -155.92)" fill="#ea734e"/><path d="M68.1,305.2a55.162,55.162,0,0,0,66.6-.022Z" transform="translate(-45.969 -206.001)" fill="#ea734e"/><path d="M128.573,14.819a55.128,55.128,0,0,0-75.24.025Z" transform="translate(-36.001 0)" fill="#ea734e"/></g></svg>