<svg xmlns="http://www.w3.org/2000/svg" xmlns:xlink="http://www.w3.org/1999/xlink" width="199.639" height="69.901" viewBox="0 0 199.639 69.901"><defs><clipPath id="a"><rect width="199.639" height="69.901" fill="none"/></clipPath></defs><g transform="translate(-83 -211)"><g transform="translate(83 211)"><g clip-path="url(#a)"><path d="M60.84,22.827c-3.059,1.527-3.628,2.074-7.506,4.7L111.47,42.777c-1.636-3.607-2.221-5.735-3.438-7.638Z" transform="translate(-42.357 -18.129)" fill="#c5c5c5"/><path d="M11.144,90.369,78.418,105.61c.233-2.241-.363-2.134.068-3.771.236-.863-.023-3,.143-3.867L14.508,82.728c-.282.838-2.651,5.556-3.364,7.641" transform="translate(-8.85 -65.701)" fill="#c5c5c5"/><path d="M.451,156.954c.355,2.9-.069,3.817.287,7.637l61.019,13.46c2.192-1.852,4.538-3.481,6.225-5.86Z" transform="translate(-0.358 -124.65)" fill="#c5c5c5"/><path d="M11.776,231.082c1.244,3,3.907,5,4.158,7.633L57.86,250.754a37.98,37.98,0,0,1,7.688-4.422Z" transform="translate(-9.352 -183.521)" fill="#c5c5c5"/><path d="M14.507,82.661A34.788,34.788,0,0,0,11.143,90.3l66.82-.019a35.3,35.3,0,0,0-3.438-7.638Z" transform="translate(-8.85 -65.634)" fill="#ea734e"/><path d="M0,159.49a34.52,34.52,0,0,0,.379,4.975l69.188-.032a34.034,34.034,0,0,0,.333-4.967c0-.9-.055-1.787-.122-2.67l-69.685.033c-.057.882-.1,1.76-.092,2.662" transform="translate(0 -124.525)" fill="#ea734e"/><path d="M11.776,231a34.757,34.757,0,0,0,4.158,7.633l56.97-.022a34.517,34.517,0,0,0,4.072-7.631Z" transform="translate(-9.352 -183.444)" fill="#ea734e"/><path d="M68.1,305.19a34.936,34.936,0,0,0,42.18-.014Z" transform="translate(-54.084 -242.366)" fill="#ea734e"/><path d="M100.985,9.385A34.914,34.914,0,0,0,53.333,9.4Z" transform="translate(-42.356 0)" fill="#ea734e"/><path d="M399.826,72.993h17.02a37.008,37.008,0,0,1,6.506.5,22.4,22.4,0,0,1,4.8,1.363,12.073,12.073,0,0,1,3.332,2.037,10.159,10.159,0,0,1,2.088,2.538,9.817,9.817,0,0,1,1.088,2.813,13.815,13.815,0,0,1,.31,2.9v1.035a14.538,14.538,0,0,1-.293,2.849,9.962,9.962,0,0,1-1.053,2.849,10.809,10.809,0,0,1-2.071,2.622,12.421,12.421,0,0,1-3.314,2.177,20.542,20.542,0,0,1-4.8,1.466,35.321,35.321,0,0,1-6.559.535H399.826Zm8.044,19.5h8.354a17.846,17.846,0,0,0,5.454-.674,8.663,8.663,0,0,0,3.123-1.657,4.583,4.583,0,0,0,1.416-2.141,7.954,7.954,0,0,0,.327-2.158v-.207a8.233,8.233,0,0,0-.311-2.121,4.614,4.614,0,0,0-1.38-2.158,8.169,8.169,0,0,0-3.124-1.657,18.63,18.63,0,0,0-5.506-.657H407.87Z" transform="translate(-317.535 -57.97)" fill="#fff"/><path d="M583.969,79.069H572.923V72.994h30.24v6.075H592.082V98.678h-8.112Z" transform="translate(-455.006 -57.971)" fill="#fff"/><path d="M736.465,96.949a18.04,18.04,0,0,1-4.091-1.192,9.66,9.66,0,0,1-2.675-1.691,7.821,7.821,0,0,1-1.571-1.967,6.607,6.607,0,0,1-.725-2.02,10.944,10.944,0,0,1-.172-1.864v-.381h8.388a4.553,4.553,0,0,0,.294,1.3,3.036,3.036,0,0,0,1.07,1.329,6.8,6.8,0,0,0,2.295,1.035,15.255,15.255,0,0,0,3.971.414h.483a28.514,28.514,0,0,0,4.021-.224,7.682,7.682,0,0,0,2.279-.621,2.086,2.086,0,0,0,1-.881,2.357,2.357,0,0,0,.224-1,2.21,2.21,0,0,0-.224-1,1.947,1.947,0,0,0-.915-.795,6.9,6.9,0,0,0-2.036-.535,33.9,33.9,0,0,0-3.557-.26l-4.419-.1a27.707,27.707,0,0,1-6.007-.725,11.872,11.872,0,0,1-3.866-1.64,5.893,5.893,0,0,1-2.054-2.331,6.682,6.682,0,0,1-.6-2.829v-.311a7.893,7.893,0,0,1,.536-2.849,5.6,5.6,0,0,1,2.071-2.5,12.69,12.69,0,0,1,4.263-1.8,29.89,29.89,0,0,1,7.112-.689h2.381a31.535,31.535,0,0,1,7.456.725,13.867,13.867,0,0,1,4.557,1.881,6.257,6.257,0,0,1,2.278,2.605,7.321,7.321,0,0,1,.621,2.9v.344H750.5a4.346,4.346,0,0,0-.294-.9,2.473,2.473,0,0,0-.967-1,7.241,7.241,0,0,0-2.192-.828,18.028,18.028,0,0,0-3.97-.344h-.553a27.3,27.3,0,0,0-3.676.19,7.34,7.34,0,0,0-1.985.5,1.582,1.582,0,0,0-.828.708,2,2,0,0,0-.172.811,1.753,1.753,0,0,0,.189.792,1.709,1.709,0,0,0,.812.691,6.5,6.5,0,0,0,1.8.5,22.741,22.741,0,0,0,3.141.224l4.315.07a37.986,37.986,0,0,1,6.2.552,13.677,13.677,0,0,1,4.212,1.416,5.974,5.974,0,0,1,2.4,2.348,6.911,6.911,0,0,1,.758,3.313V88.8a9.439,9.439,0,0,1-.534,3.123A6.007,6.007,0,0,1,757,94.688a12.583,12.583,0,0,1-4.574,1.967,33.172,33.172,0,0,1-7.8.742h-2.382a32.38,32.38,0,0,1-5.782-.448" transform="translate(-577.554 -56.242)" fill="#fff"/><path d="M399.825,231.384h6.328a5.212,5.212,0,0,1,1.316.139,2.34,2.34,0,0,1,.83.377,1.328,1.328,0,0,1,.432.542,1.645,1.645,0,0,1,.124.631v.139a1.321,1.321,0,0,1-.134.616,1.5,1.5,0,0,1-.705.69,2.877,2.877,0,0,1-.333.134,3.54,3.54,0,0,1,.462.164,1.966,1.966,0,0,1,.521.328,1.9,1.9,0,0,1,.427.547,1.712,1.712,0,0,1,.179.819v.139a2.429,2.429,0,0,1-.139.825,1.54,1.54,0,0,1-.492.676,2.614,2.614,0,0,1-.944.457,5.492,5.492,0,0,1-1.485.169h-6.388Zm2.315,1.56v1.2h3.616a1.346,1.346,0,0,0,.4-.049.623.623,0,0,0,.248-.134.457.457,0,0,0,.125-.193.728.728,0,0,0,.035-.219v-.02a.712.712,0,0,0-.035-.224.425.425,0,0,0-.125-.184.667.667,0,0,0-.248-.13,1.374,1.374,0,0,0-.4-.049Zm0,2.772v1.45h3.815a1.308,1.308,0,0,0,.467-.07.719.719,0,0,0,.278-.179.574.574,0,0,0,.134-.238.928.928,0,0,0,.035-.238v-.04a.911.911,0,0,0-.035-.244.477.477,0,0,0-.134-.218.784.784,0,0,0-.278-.159,1.406,1.406,0,0,0-.467-.064Z" transform="translate(-317.534 -183.761)" fill="#fff"/><path d="M451.617,238.774H449.3v-7.391h5.961a6.707,6.707,0,0,1,1.54.149,2.886,2.886,0,0,1,.989.412,1.5,1.5,0,0,1,.526.611,1.822,1.822,0,0,1,.154.745v.119a1.455,1.455,0,0,1-.144.676,1.677,1.677,0,0,1-.357.472,1.781,1.781,0,0,1-.452.3,4.38,4.38,0,0,1-.417.169,2.648,2.648,0,0,1,.536.218,1.616,1.616,0,0,1,.447.353,1.733,1.733,0,0,1,.3.492,1.663,1.663,0,0,1,.114.636v1.083a3.035,3.035,0,0,0,.045.631,1.145,1.145,0,0,0,.094.273v.05h-2.355a.569.569,0,0,1-.08-.169,1.11,1.11,0,0,1-.03-.3v-.855a1.277,1.277,0,0,0-.343-.988,1.777,1.777,0,0,0-1.2-.313h-3.02Zm0-4.262h3.507a1.014,1.014,0,0,0,.715-.208.686.686,0,0,0,.219-.517v-.01a.687.687,0,0,0-.213-.5,1,1,0,0,0-.72-.213h-3.507Z" transform="translate(-356.828 -183.76)" fill="#fff"/><path d="M502.625,230.757a9.646,9.646,0,0,1,2,.179,5.743,5.743,0,0,1,1.416.477,3.234,3.234,0,0,1,.929.68,3.3,3.3,0,0,1,.541.785,2.8,2.8,0,0,1,.254.805,5.051,5.051,0,0,1,.06.73v.3a4.95,4.95,0,0,1-.06.726,3.024,3.024,0,0,1-.248.809,3.132,3.132,0,0,1-.542.8,3.349,3.349,0,0,1-.929.691,5.659,5.659,0,0,1-1.415.487,9.471,9.471,0,0,1-2,.184H502.2a9.524,9.524,0,0,1-2.012-.184,5.669,5.669,0,0,1-1.416-.487,3.344,3.344,0,0,1-.929-.691,3.118,3.118,0,0,1-.542-.8,3.032,3.032,0,0,1-.248-.809,4.923,4.923,0,0,1-.059-.726v-.3a5.023,5.023,0,0,1,.059-.73,2.9,2.9,0,0,1,.248-.805,3.127,3.127,0,0,1,.542-.785,3.324,3.324,0,0,1,.929-.68,5.656,5.656,0,0,1,1.416-.477,9.779,9.779,0,0,1,2.012-.179Zm2.772,3.725a2.1,2.1,0,0,0-.114-.661,1.433,1.433,0,0,0-.442-.626,2.572,2.572,0,0,0-.914-.467,5.215,5.215,0,0,0-1.52-.184,5.3,5.3,0,0,0-1.54.184,2.515,2.515,0,0,0-.909.467,1.4,1.4,0,0,0-.432.626,2.168,2.168,0,0,0-.109.661v.119a2.173,2.173,0,0,0,.114.67,1.507,1.507,0,0,0,.442.651,2.518,2.518,0,0,0,.914.492,4.945,4.945,0,0,0,1.52.194,5.009,5.009,0,0,0,1.515-.189,2.511,2.511,0,0,0,.909-.482,1.527,1.527,0,0,0,.447-.646,2.1,2.1,0,0,0,.119-.671Z" transform="translate(-394.703 -183.263)" fill="#fff"/><path d="M553.661,238.775v-7.391h2.315v3.08l3.785-3.08H562.7l-4.252,3.378,4.451,4.014h-3.02l-3.9-3.487v3.487Z" transform="translate(-439.708 -183.761)" fill="#fff"/><path d="M608.174,231.383v1.679h-5.5v1.093h5.374v1.689H602.67v1.212h5.6v1.719h-7.888v-7.392Z" transform="translate(-476.815 -183.761)" fill="#fff"/><path d="M645.708,238.774h-2.315v-7.391h5.961a6.707,6.707,0,0,1,1.54.149,2.886,2.886,0,0,1,.989.412,1.5,1.5,0,0,1,.526.611,1.822,1.822,0,0,1,.154.745v.119a1.455,1.455,0,0,1-.144.676,1.678,1.678,0,0,1-.357.472,1.781,1.781,0,0,1-.452.3,4.387,4.387,0,0,1-.417.169,2.65,2.65,0,0,1,.536.218,1.615,1.615,0,0,1,.447.353,1.735,1.735,0,0,1,.3.492,1.663,1.663,0,0,1,.115.636v1.083a3.035,3.035,0,0,0,.044.631,1.134,1.134,0,0,0,.094.273v.05h-2.355a.574.574,0,0,1-.08-.169,1.11,1.11,0,0,1-.03-.3v-.855a1.276,1.276,0,0,0-.343-.988,1.777,1.777,0,0,0-1.2-.313h-3.02Zm0-4.262h3.507a1.014,1.014,0,0,0,.715-.208.686.686,0,0,0,.219-.517v-.01a.687.687,0,0,0-.213-.5,1,1,0,0,0-.72-.213h-3.507Z" transform="translate(-510.972 -183.76)" fill="#fff"/><path d="M696.989,237.423h-4.48l-.666,1.352h-2.355l3.736-7.392h3l3.954,7.392h-2.493Zm-2.285-4.441-1.371,2.772h2.8Z" transform="translate(-547.58 -183.76)" fill="#fff"/><path d="M743.993,238.406a7.864,7.864,0,0,1-1.759-.174,5.379,5.379,0,0,1-1.3-.462,3.43,3.43,0,0,1-.9-.666,3.5,3.5,0,0,1-.572-.789,3.311,3.311,0,0,1-.3-.835,3.827,3.827,0,0,1-.089-.789v-.278a4.316,4.316,0,0,1,.075-.77,3.021,3.021,0,0,1,.278-.819,3.249,3.249,0,0,1,.557-.78,3.353,3.353,0,0,1,.909-.66,5.4,5.4,0,0,1,1.341-.457,8.894,8.894,0,0,1,1.848-.169h.427a10.231,10.231,0,0,1,1.8.139,6.15,6.15,0,0,1,1.3.368,3.517,3.517,0,0,1,.884.521,2.756,2.756,0,0,1,.546.6,2.1,2.1,0,0,1,.278.616,2.689,2.689,0,0,1,.09.556v.01h-2.464a2.022,2.022,0,0,0-.109-.236,1.057,1.057,0,0,0-.362-.361,2.677,2.677,0,0,0-.784-.326,5.366,5.366,0,0,0-1.376-.141,4.789,4.789,0,0,0-1.391.169,2.3,2.3,0,0,0-.859.448,1.516,1.516,0,0,0-.437.637,2.273,2.273,0,0,0-.124.746v.109a1.86,1.86,0,0,0,.149.717,1.7,1.7,0,0,0,.482.642,2.522,2.522,0,0,0,.865.458,4.181,4.181,0,0,0,1.3.175,5.942,5.942,0,0,0,1.376-.134,3.712,3.712,0,0,0,.879-.313,1.55,1.55,0,0,0,.467-.352.524.524,0,0,0,.139-.254v-.02h-2.9v-1.4h5.206v4.143h-1.391c-.006-.066-.02-.149-.039-.248s-.043-.2-.07-.313-.056-.215-.089-.318-.066-.193-.1-.273a3.935,3.935,0,0,1-.367.358,2.964,2.964,0,0,1-.671.422,5.209,5.209,0,0,1-1.043.353,6.368,6.368,0,0,1-1.476.149Z" transform="translate(-586.953 -183.263)" fill="#fff"/><path d="M802.41,231.383v1.679h-5.5v1.093h5.375v1.689h-5.375v1.212h5.6v1.719H794.62v-7.392Z" transform="translate(-631.074 -183.761)" fill="#fff"/><rect width="2.315" height="7.391" transform="translate(175.458 47.623)" fill="#fff"/><path d="M871.828,231.383l4.719,4.649v-4.649h2.285v7.392h-2.285l-5.017-4.9v4.9h-2.285v-7.392Z" transform="translate(-690.34 -183.761)" fill="#fff"/><path d="M924.829,238.406a8.154,8.154,0,0,1-1.852-.184,5.282,5.282,0,0,1-1.331-.487,3.3,3.3,0,0,1-.895-.691,3.39,3.39,0,0,1-.536-.8,3.209,3.209,0,0,1-.263-.814,4.328,4.328,0,0,1-.069-.73v-.288a4.7,4.7,0,0,1,.064-.74,3.12,3.12,0,0,1,.249-.8,3.18,3.18,0,0,1,.521-.785,3.133,3.133,0,0,1,.889-.675,5.413,5.413,0,0,1,1.342-.472,8.629,8.629,0,0,1,1.882-.179h.407a9.787,9.787,0,0,1,1.858.154,5.853,5.853,0,0,1,1.331.408,3.388,3.388,0,0,1,.889.571,2.96,2.96,0,0,1,.536.641,2.156,2.156,0,0,1,.263.621,2.309,2.309,0,0,1,.07.516v.109h-2.454a2.774,2.774,0,0,0-.114-.273,1.2,1.2,0,0,0-.378-.418,2.693,2.693,0,0,0-.8-.377,4.838,4.838,0,0,0-1.406-.164,4.542,4.542,0,0,0-1.361.169,2.243,2.243,0,0,0-.829.442,1.439,1.439,0,0,0-.417.616,2.168,2.168,0,0,0-.114.69v.119a2.1,2.1,0,0,0,.124.685,1.655,1.655,0,0,0,.437.656,2.389,2.389,0,0,0,.845.492,3.951,3.951,0,0,0,1.336.194,4.555,4.555,0,0,0,1.421-.179,2.545,2.545,0,0,0,.8-.412,1.2,1.2,0,0,0,.362-.448c.056-.142.092-.233.1-.273h2.454v.109a2.438,2.438,0,0,1-.075.546,2.284,2.284,0,0,1-.273.651,3.022,3.022,0,0,1-.546.656,3.417,3.417,0,0,1-.9.576,6.144,6.144,0,0,1-1.331.412,9.278,9.278,0,0,1-1.833.159Z" transform="translate(-730.555 -183.263)" fill="#fff"/></g></g></g></svg>