<svg xmlns="http://www.w3.org/2000/svg" xmlns:xlink="http://www.w3.org/1999/xlink" width="51.67" height="54.887" viewBox="0 0 51.67 54.887"><defs><clipPath id="a"><rect width="51.67" height="54.887" fill="none"/></clipPath></defs><path d="M3.966,22.966h43.74V44.8H3.966ZM0,48.769H51.67V19H0Z" transform="translate(0 6.118)" fill="#ea734e"/><rect width="27.618" height="3.966" transform="translate(2.313 25.738) rotate(-32.88)" fill="#ea734e"/><rect width="3.966" height="27.618" transform="translate(23.094 14.076) rotate(-57.118)" fill="#ea734e"/><g transform="translate(0 0)"><g clip-path="url(#a)"><path d="M20.609,14.569a5.808,5.808,0,0,1-5.8-5.8V6.786h3.819V.4h3.966V3.315a5.8,5.8,0,0,1-1.983,11.254M18.773,6.932V8.769a1.836,1.836,0,1,0,1.836-1.836Z" transform="translate(4.768 0.128)" fill="#ea734e"/><rect width="9.866" height="3.966" transform="translate(20.443)" fill="#ea734e"/><rect width="3.966" height="16.422" transform="translate(9.541 31.791)" fill="#ea734e"/><rect width="3.966" height="16.422" transform="translate(19.082 31.791)" fill="#ea734e"/><rect width="3.966" height="16.422" transform="translate(28.623 31.791)" fill="#ea734e"/><rect width="3.966" height="16.422" transform="translate(38.165 31.791)" fill="#ea734e"/></g></g></svg>