<svg xmlns="http://www.w3.org/2000/svg" xmlns:xlink="http://www.w3.org/1999/xlink" width="61.009" height="37.898" viewBox="0 0 61.009 37.898"><defs><clipPath id="a"><rect width="61.009" height="37.898" fill="none"/></clipPath></defs><g transform="translate(-277 -1334.484)"><g transform="translate(277 1334.484)"><g transform="translate(0 0)" clip-path="url(#a)"><path d="M12.049,31.994a6.83,6.83,0,1,1,6.831-6.829,6.838,6.838,0,0,1-6.831,6.829m0-9.694a2.864,2.864,0,1,0,2.865,2.865A2.868,2.868,0,0,0,12.049,22.3" transform="translate(1.68 5.904)" fill="#ea734e"/><path d="M38.907,31.994a6.83,6.83,0,1,1,6.831-6.829,6.838,6.838,0,0,1-6.831,6.829m0-9.694a2.864,2.864,0,1,0,2.865,2.865A2.868,2.868,0,0,0,38.907,22.3" transform="translate(10.329 5.904)" fill="#ea734e"/><path d="M60.914,33.05H52.1V29.084h4.848V18.508H41.524V29.084h4.848V33.05H16.594V29.084H37.558V3.966H3.966V29.084h6.9V33.05H0V0H41.524V2.423h11.2l8.026,12.119h.163v.246l.1.144-.1.063ZM41.524,14.542H55.993l-5.4-8.153h-9.07Z" transform="translate(0 0.001)" fill="#ea734e"/><rect width="26.002" height="3.966" transform="translate(7.761 8.354)" fill="#ea734e"/><rect width="26.002" height="3.966" transform="translate(7.761 15.946)" fill="#ea734e"/></g></g></g></svg>