<svg xmlns="http://www.w3.org/2000/svg" xmlns:xlink="http://www.w3.org/1999/xlink" width="44.23" height="50.2" viewBox="0 0 44.23 50.2"><defs><clipPath id="a"><rect width="44.23" height="50.2" fill="none"/></clipPath></defs><path d="M20.056,3.433,40.245,15.158v20.3L22.134,45.648,4.024,35.461V12.974H.06V37.781L22.134,50.2,44.211,37.781V12.875L22.049,0Z" transform="translate(0.019 0.001)" fill="#ea734e"/><g transform="translate(0 0)"><g clip-path="url(#a)"><path d="M17.243,24.372a1.984,1.984,0,0,1-.974-3.712l20.093-11.3a1.983,1.983,0,1,1,1.945,3.456l-20.093,11.3a1.973,1.973,0,0,1-.97.255" transform="translate(4.913 2.931)" fill="#ea734e"/><path d="M17.241,44.224a1.982,1.982,0,0,1-1.983-1.983v-22.6a1.983,1.983,0,0,1,3.966,0v22.6a1.982,1.982,0,0,1-1.983,1.983" transform="translate(4.913 5.685)" fill="#ea734e"/><path d="M22.121,24.327a1.97,1.97,0,0,1-.96-.25L1.117,12.959A1.983,1.983,0,1,1,3.04,9.492L23.085,20.61a1.983,1.983,0,0,1-.964,3.717" transform="translate(0.031 2.976)" fill="#ea734e"/><path d="M9.644,20.1a1.984,1.984,0,0,1-.974-3.712l20.093-11.3A1.983,1.983,0,1,1,30.707,8.54l-20.093,11.3a1.973,1.973,0,0,1-.97.255" transform="translate(2.466 1.555)" fill="#ea734e"/><rect width="25.639" height="3.966" transform="matrix(0.862, -0.507, 0.507, 0.862, 0, 12.992)" fill="#ea734e"/></g></g></svg>