<svg xmlns="http://www.w3.org/2000/svg" xmlns:xlink="http://www.w3.org/1999/xlink" width="62.278" height="40.999" viewBox="0 0 62.278 40.999"><defs><clipPath id="a"><rect width="62.278" height="40.999" fill="none"/></clipPath></defs><rect width="12.912" height="3.966" transform="translate(4.472 6.368)" fill="#ea734e"/><rect width="12.912" height="3.967" transform="translate(0 14.467)" fill="#ea734e"/><rect width="12.912" height="3.966" transform="translate(4.472 22.566)" fill="#ea734e"/><rect width="12.912" height="3.966" transform="translate(0 30.665)" fill="#ea734e"/><g transform="translate(0 0)"><g clip-path="url(#a)"><path d="M36.6,41a20.5,20.5,0,1,1,20.5-20.5A20.522,20.522,0,0,1,36.6,41m0-37.033A16.534,16.534,0,1,0,53.129,20.5,16.551,16.551,0,0,0,36.6,3.966" transform="translate(5.183 0)" fill="#ea734e"/><path d="M38.258,27.471,30.1,19.317V6.225h3.966V17.673l6.993,6.993Z" transform="translate(9.693 2.005)" fill="#ea734e"/></g></g></svg>