<svg xmlns="http://www.w3.org/2000/svg" xmlns:xlink="http://www.w3.org/1999/xlink" width="50.467" height="63.954" viewBox="0 0 50.467 63.954"><defs><clipPath id="a"><rect width="50.467" height="63.954" fill="none"/></clipPath></defs><g clip-path="url(#a)"><path d="M24.655,46.9A23.448,23.448,0,1,1,48.1,23.448,23.475,23.475,0,0,1,24.655,46.9m0-42.829A19.381,19.381,0,1,0,44.036,23.448,19.4,19.4,0,0,0,24.655,4.067" transform="translate(0.578 0.001)" fill="#ea734e"/><path d="M26.394,51.845,15.964,33.778a2.034,2.034,0,0,1,3.523-2.033l6.631,11.486,2.927-5.918,6.588.424-5.424-9.4a2.033,2.033,0,1,1,3.521-2.033l9.225,15.977-11.467-.739Z" transform="translate(7.513 12.11)" fill="#ea734e"/><path d="M16.56,51.844l-5.093-10.3L0,42.284,9.225,26.308a2.033,2.033,0,1,1,3.521,2.033L7.322,37.737l6.588-.424,2.927,5.918,6.632-11.486a2.034,2.034,0,0,1,3.523,2.033Z" transform="translate(0 12.11)" fill="#ea734e"/><path d="M23.158,30.046H17.189a6.506,6.506,0,0,1-5.946-4.34l-.676-1.918L14.4,22.436l.677,1.917a2.429,2.429,0,0,0,2.2,1.628h5.881a2.443,2.443,0,0,0,0-4.886H17.189a6.509,6.509,0,1,1,0-13.018h5.968A6.506,6.506,0,0,1,29.1,12.417l.676,1.918-3.836,1.352-.676-1.919a2.43,2.43,0,0,0-2.2-1.628l-5.881,0a2.442,2.442,0,0,0,0,4.885h5.968a6.51,6.51,0,0,1,0,13.019" transform="translate(5.06 3.867)" fill="#ea734e"/><path d="M19.755,35.971H15.688V27.428h4.067Zm0-22.38H15.688V5.048h4.067Z" transform="translate(7.511 2.418)" fill="#ea734e"/></g></svg>