<svg xmlns="http://www.w3.org/2000/svg" xmlns:xlink="http://www.w3.org/1999/xlink" width="79.863" height="61.807" viewBox="0 0 79.863 61.807"><defs><clipPath id="a"><rect width="79.863" height="61.807" fill="none"/></clipPath></defs><g transform="translate(0 0)" clip-path="url(#a)"><path d="M78.159,33.191a33.9,33.9,0,0,0-9.912-6.4,9.493,9.493,0,1,0-16.37-.161,23.5,23.5,0,0,0-2.609,1.165,9.5,9.5,0,1,0-18.327.624,29.822,29.822,0,0,0-3.369-1.628A9.492,9.492,0,1,0,11.2,26.629a23.914,23.914,0,0,0-9.763,6.8L0,35.1,19.675,52.082l8.018-7.076,12.564,10.84,12.088-10.67,8,6.906L79.863,34.859ZM60.109,16.882a5.053,5.053,0,1,1-3,9.117,4.976,4.976,0,0,1-2.056-4.061,5.062,5.062,0,0,1,5.056-5.056M40.016,20.646a5.054,5.054,0,1,1-3,9.117A4.98,4.98,0,0,1,34.96,25.7a5.062,5.062,0,0,1,5.056-5.056m-20.58-3.764a5.054,5.054,0,1,1-3,9.117,4.979,4.979,0,0,1-2.054-4.061,5.062,5.062,0,0,1,5.056-5.056M19.643,46.2,6.344,34.72A19.445,19.445,0,0,1,14.7,30.164c.068.04.143.068.213.1.157.087.318.16.478.237.238.112.476.216.722.306.219.081.438.157.661.222.172.05.345.087.518.127a9.509,9.509,0,0,0,2.147.272,9.541,9.541,0,0,0,.967-.075c.07-.007.139-.009.209-.016.3-.037.586-.095.874-.158.167-.037.333-.074.5-.118.232-.065.46-.136.686-.219s.472-.185.7-.29c.166-.075.333-.148.5-.234.059-.031.124-.053.183-.086a22.8,22.8,0,0,1,4.243,1.8,23.865,23.865,0,0,0-6.272,5.158l-1.44,1.678L24.3,42.081Zm20.58,3.764-13.3-11.476a19.457,19.457,0,0,1,8.352-4.556c.07.04.143.068.213.1.157.086.318.16.479.237.237.112.476.216.722.306.217.081.436.157.66.222.172.049.345.087.519.127a7.708,7.708,0,0,0,3.114.2c.07-.007.138-.009.207-.016.3-.037.587-.095.877-.158.166-.037.331-.074.5-.118.232-.065.46-.136.686-.219s.472-.185.7-.29c.166-.075.333-.148.494-.234.061-.031.124-.053.185-.087a27.269,27.269,0,0,1,8.5,4.571ZM60.316,46.2,55.7,42.214l4.068-3.592-1.7-1.67a34.133,34.133,0,0,0-7.078-5.066,19.265,19.265,0,0,1,4.382-1.723c.07.04.143.068.213.1.157.087.318.16.479.237.237.112.475.216.722.306.217.081.436.157.66.222.172.05.345.087.519.127a7.7,7.7,0,0,0,3.113.2c.07-.007.139-.009.209-.016.3-.037.586-.095.875-.158.167-.037.331-.074.5-.118.232-.065.458-.136.685-.219s.473-.185.7-.29c.166-.075.331-.148.492-.232.061-.033.126-.055.185-.087a27.231,27.231,0,0,1,8.5,4.57Z" transform="translate(0 5.96)" fill="#ea734e"/><path d="M38.855,13.5l3.9-2.053L46.653,13.5l-.745-4.346L49.07,6.076l-4.364-.631L42.755,1.489,40.8,5.445l-4.364.631L39.6,9.155Z" transform="translate(17.447 0.713)" fill="#eb744e"/><path d="M11.351,13.5l3.9-2.053L19.149,13.5,18.4,9.155l3.162-3.079L17.2,5.445,15.251,1.489,13.3,5.445l-4.364.631L12.1,9.155Z" transform="translate(4.278 0.713)" fill="#eb744e"/><path d="M24.589,16.417l5.334-2.805,5.324,2.805-1.019-5.94,4.321-4.207-5.964-.864L29.917,0,27.251,5.405l-5.964.864,4.321,4.207Z" transform="translate(10.192 0.001)" fill="#eb744e"/></g></svg>